PathFileType	4	(X/Y/Z)	C:/Users/opensim2020/Desktop/walking_exp_matlab/subject06_walking18_straight_03_cyclic.trc	
DataRate	CameraRate	NumFrames	NumMarkers	Units	OrigDataRate	OrigDataStartFrame	OrigNumFrames	
100.00	100.00	6	47	mm	100.00	3490	148	
Frame#	Time	LFHD			RFHD			LBHD			RBHD			C7			T10			CLAV			STRN			RBAK			LSHO			LUPA			LELB			LFRM			LWRA			LWRB			LFIN			RSHO			RUPA			RELB			RFRM			RWRA			RWRB			RFIN			LASI			RASI			LPSI			RPSI			LTHI			LKNE			LTIB			LANK			LHEE			LTOE			RTHI			RKNE			RTIB			RANK			RHEE			RTOE			*39			*40			*41			*42			*43			*44			*45			*46			
		X1	Y1	Z1	X2	Y2	Z2	X3	Y3	Z3	X4	Y4	Z4	X5	Y5	Z5	X6	Y6	Z6	X7	Y7	Z7	X8	Y8	Z8	X9	Y9	Z9	X10	Y10	Z10	X11	Y11	Z11	X12	Y12	Z12	X13	Y13	Z13	X14	Y14	Z14	X15	Y15	Z15	X16	Y16	Z16	X17	Y17	Z17	X18	Y18	Z18	X19	Y19	Z19	X20	Y20	Z20	X21	Y21	Z21	X22	Y22	Z22	X23	Y23	Z23	X24	Y24	Z24	X25	Y25	Z25	X26	Y26	Z26	X27	Y27	Z27	X28	Y28	Z28	X29	Y29	Z29	X30	Y30	Z30	X31	Y31	Z31	X32	Y32	Z32	X33	Y33	Z33	X34	Y34	Z34	X35	Y35	Z35	X36	Y36	Z36	X37	Y37	Z37	X38	Y38	Z38	X39	Y39	Z39	X40	Y40	Z40	X41	Y41	Z41	X42	Y42	Z42	X43	Y43	Z43	X44	Y44	Z44	X45	Y45	Z45	X46	Y46	Z46	X47	Y47	Z47	

130	1.290	1355.23743	366.79886	1658.35620	1485.91272	357.50900	1644.22156	1344.66089	233.61716	1605.41809	1473.73999	226.05017	1596.74878	1399.07300	226.93498	1446.54858	1407.79749	185.22177	1118.62939	1405.73926	334.40753	1367.28857	1399.11084	370.99402	1191.55457	1473.31348	147.41605	1276.66602	1241.90710	292.58255	1401.42993	1170.16089	315.09735	1199.82739	1159.83093	333.64429	1087.79651	1162.90808	427.06091	969.20935	1229.67358	529.91077	913.70593	1191.05652	488.93536	871.24445	1208.04016	566.20648	827.53973	1564.09351	281.46188	1398.97681	1646.85059	227.32765	1202.46069	1655.31934	226.88509	1079.70325	1670.68384	231.55655	959.17834	1638.49377	278.76038	815.16583	1677.45349	225.33650	821.08160	1679.06335	255.67726	741.87286	1302.88000	356.92358	952.21399	1525.18237	360.20135	963.10626	1332.93005	199.91565	986.30231	1500.94409	208.33899	988.13300	1255.42603	244.17705	644.52246	1278.67859	210.07857	483.32309	1293.59473	111.84365	243.60287	1345.05469	70.82724	76.01012	1390.48621	27.52274	67.85368	1350.05579	212.42241	38.72497	1589.86108	361.66348	637.68787	1559.93726	401.88593	521.77710	1568.46594	439.05737	260.71371	1531.25720	495.50385	80.78947	1483.54285	469.73367	47.51763	1540.95764	652.23993	86.58979	1408.40405	263.14618	1696.47290																					 
131	1.300	1357.14551	373.25345	1657.50928	1487.93994	364.10303	1643.30432	1346.51563	240.10341	1604.46167	1475.59387	232.58206	1595.65271	1400.70483	233.65125	1445.58643	1409.15674	192.38231	1117.62610	1407.16748	341.24564	1366.45776	1400.27844	378.08765	1190.76074	1474.80847	154.35213	1275.52795	1243.47021	299.31073	1400.64539	1171.80151	321.94943	1199.03064	1161.54639	340.54688	1087.03845	1164.61560	434.81866	968.74438	1231.75378	537.64233	914.24847	1193.31116	496.92203	871.36029	1210.34399	574.43903	828.25092	1565.71021	288.35379	1397.97937	1648.21899	234.08267	1201.36438	1656.54248	233.58041	1078.59277	1671.64929	238.18219	958.01495	1639.38696	285.08350	813.90393	1678.47766	231.59132	819.96088	1680.10583	261.76254	740.69287	1303.51233	363.89047	951.46838	1525.82336	368.35272	962.44196	1334.29504	207.02325	985.22626	1502.30127	216.19760	987.16400	1256.33472	250.67603	643.74329	1279.45789	216.08113	482.64197	1293.99316	115.03129	244.14720	1345.11523	71.46500	77.07693	1390.21521	28.13567	69.15619	1349.80127	212.67966	38.80333	1590.40271	370.07367	636.79639	1560.24182	409.84079	520.75122	1568.86975	445.57755	259.25696	1531.16016	499.80685	78.76804	1483.66345	473.61200	45.07301	1538.60828	656.58197	83.91774	1410.41980	269.49570	1695.51074																					 
132	1.310	1359.07593	379.65573	1656.77405	1489.81824	370.61655	1642.37256	1348.47412	246.57292	1603.53113	1477.55054	239.19885	1594.50732	1402.46838	240.42813	1444.60400	1410.67041	199.72467	1116.54456	1408.78015	348.16031	1365.56897	1401.56128	385.29160	1189.97229	1476.41357	161.50546	1274.38171	1245.13928	306.07123	1399.85095	1173.45105	328.86087	1198.26904	1163.21985	347.56253	1086.29626	1166.42847	442.32199	968.58868	1233.80310	545.32703	914.62775	1195.48999	504.87488	871.39923	1212.59363	582.65955	828.82935	1567.38684	295.40237	1396.90576	1649.64246	240.97459	1200.26917	1657.87878	240.44728	1077.47119	1672.89575	244.84050	956.86987	1640.56140	291.43936	812.66028	1679.64551	238.00348	818.82294	1681.09814	267.95697	739.44293	1304.12048	371.00620	950.74359	1526.43750	376.60492	961.64709	1335.77161	214.33710	984.10046	1503.78076	224.22897	986.17981	1257.29272	257.27145	643.03699	1280.22278	222.22308	482.02039	1294.41357	118.08500	244.75227	1345.16504	72.05756	78.22892	1390.21338	28.75219	70.72400	1350.42725	212.62508	38.52085	1590.99353	378.47821	635.76050	1560.43103	417.73987	519.55957	1569.11902	451.36145	257.64877	1531.22998	503.24200	76.55823	1484.49780	475.86194	43.15858	1535.84521	659.92108	80.68251	1412.48254	275.89426	1694.54297																					 
133	1.320	1361.08899	386.10675	1656.06458	1491.65393	377.00296	1641.39880	1350.54150	253.03992	1602.58850	1479.58691	245.85652	1593.35547	1404.25269	247.32552	1443.57385	1412.30762	207.13280	1115.44348	1410.44421	355.16983	1364.75647	1402.85571	392.61853	1189.22827	1478.14099	168.62975	1273.18176	1246.90991	312.82300	1399.02527	1175.13391	335.77652	1197.48706	1164.96313	354.45370	1085.53308	1168.51794	449.50290	968.22797	1235.79773	552.98633	914.89832	1197.61194	512.71295	871.34979	1214.76538	590.85236	829.29340	1569.14380	302.50876	1395.83887	1651.14673	247.97929	1199.09180	1659.28979	247.46227	1076.31433	1674.20020	251.66640	955.69031	1641.79346	297.96277	811.38208	1680.83618	244.56371	817.63519	1682.64319	274.82523	738.27411	1304.80725	378.36038	949.97540	1527.16895	385.11441	960.88892	1337.42542	221.83611	983.01428	1505.41589	232.49654	985.11139	1258.29358	264.05737	642.38690	1280.94153	228.43443	481.44595	1294.78992	121.07480	245.46712	1345.20801	72.73657	79.52543	1390.10596	29.19730	72.41747	1350.47498	212.76459	38.44710	1591.62378	386.96802	634.61456	1560.76355	425.91483	518.32697	1569.67578	457.12875	255.87650	1531.21680	505.88885	74.01811	1485.01514	477.09073	41.17579	1532.98486	662.38580	76.69141	1414.64856	282.25922	1693.54431																					 
134	1.330	1363.03125	392.45102	1655.35413	1493.65259	383.64484	1640.48315	1352.71509	259.52695	1601.65088	1481.74170	252.55254	1592.23132	1406.25586	254.02695	1442.57385	1414.13037	214.80846	1114.36536	1412.14368	362.22382	1363.94031	1404.22339	400.09897	1188.51440	1479.86621	175.99762	1271.91150	1248.69653	319.51831	1398.20593	1176.87390	342.78986	1196.69519	1166.77380	361.52011	1084.75122	1170.32849	457.04578	967.52997	1237.73767	560.55341	915.01276	1199.67981	520.50525	871.25055	1216.91553	598.52838	829.47388	1570.98596	309.67990	1394.74902	1652.71094	255.16048	1197.91492	1660.75610	254.64038	1075.15039	1675.56128	258.64432	954.46881	1643.08252	304.63821	810.06213	1682.03906	251.22270	816.39832	1683.65137	280.94669	736.92462	1305.57202	385.89795	949.26111	1528.06934	393.68533	960.05829	1339.15930	229.42572	981.98102	1507.34363	240.89682	984.14673	1259.28271	271.01447	641.75537	1281.84851	234.80521	480.88547	1295.13342	124.32266	246.29195	1345.12427	73.54269	80.89090	1389.95813	29.80494	74.34440	1350.47229	212.90750	38.37095	1592.17883	395.57614	633.38300	1561.24133	433.98883	517.21283	1569.68994	462.18680	254.19502	1530.57446	508.00455	71.88335	1484.45654	478.35184	40.53358	1530.58276	664.63116	70.49836	1416.86755	288.69162	1692.57104																					 
135	1.340	1364.89355	398.85626	1654.93665	1495.68994	390.34418	1639.81641	1354.95105	266.00006	1600.82214	1484.04224	259.38028	1591.23560	1408.26306	260.77145	1441.68323	1416.08521	222.78242	1113.23401	1413.91418	369.36395	1363.31848	1405.65479	407.68127	1187.98706	1481.87122	183.23836	1270.60693	1250.47217	326.15421	1397.53760	1178.66260	349.76633	1195.94836	1168.53979	368.55801	1083.98743	1171.92896	464.56818	967.17865	1239.59082	568.13483	915.03516	1201.56042	528.18494	871.05914	1218.86658	606.63049	829.70880	1572.90662	316.92126	1393.72815	1654.40295	262.44391	1196.72498	1662.29895	261.98364	1073.92871	1677.15735	265.66605	953.28931	1644.60632	311.35748	808.78412	1683.34363	258.12030	815.21033	1685.12695	287.70001	735.73956	1306.49304	393.69376	948.60333	1529.15063	402.28806	959.26440	1341.04663	237.07722	981.11896	1509.62158	249.07086	983.48340	1260.25940	278.10901	641.19598	1282.94666	241.42500	480.35583	1295.50916	127.65208	247.22108	1344.84412	74.34409	82.55647	1389.42322	30.38204	76.49178	1350.57800	213.06741	38.36344	1592.97717	404.11221	632.51624	1561.72192	441.41168	516.33466	1569.30981	467.55331	253.02310	1530.45984	511.34482	71.75388	1484.25269	480.60480	42.05339	1529.46411	668.52527	63.86578	1419.13953	295.12125	1691.75024																					 
